# xmcd
#
# Track frame offsets:
#	182
#	13360
#	24805
#	37025
#	49462
#	62317
#	76460
#	89945
#	103060
#	116037
#	129602
#	139540
#	151977
#	165587
#	177240
#	190877
#	204667
#	219975
#	231162
#	244962
#	256915
#	270185
#
# Disc length: 3766 seconds
#
# Revision: 1
# Processed by: cddbd v1.5.1PL0 Copyright (c) Steve Scherf et al.
# Submitted via: EasyCDDAExtractor 7.0.9.1
#
DISCID=360eb416
DTITLE=Various Artist - Play My Juke-Box - East Coast Blues 1943-1954
DYEAR=1900
DGENRE=
TTITLE0=Boy Green - Play My Juke-Box
TTITLE1=Curley Weaver - Some Rainy Day
TTITLE2=Marylin Scott - I Got What My Daddy Likes
TTITLE3=Skoodle-Dum-Doo and Sheffield - West Kinney Street Blues
TTITLE4=Hank Kilroy - Harlem Women
TTITLE5=Hank Kilroy - Awful Shame
TTITLE6=Skoodle-Dum-Do and Sheffield - Tampa Blues
TTITLE7=Guitar Shorty - I Love That Woman
TTITLE8=Big Chief Ellis - Dices Dices
TTITLE9=Julius King - One O'Clock Boogie
TTITLE10=Robert Lee Westmoreland - Hello Central, Please Give Me 209
TTITLE11=Robert Lee Westmoreland - Good Looking Woman Blues
TTITLE12=Skoodle-Dum-Doo and Sheffield - Broom Street Blues
TTITLE13=Jelly Belly and Guitar Slim  - Humming Bird Blues
TTITLE14=Sunny Jones - Leaving Home Blues
TTITLE15=Sunny Jones - Don't Want Pretty Women
TTITLE16=Elder R. Wilson and Family - Better Get Ready
TTITLE17=Guitar Slim and Jelly Belly - I've Been Dreaming
TTITLE18=Gabriel Brown - The Jinx Is On Me
TTITLE19=Skoodle-Dum-Doo and Sheffield - Gas Station Blues
TTITLE20=Boy Green - A and B Blues
TTITLE21=Tarheel Slim - Too Much Competition
EXTD=
EXTT0=
EXTT1=
EXTT2=
EXTT3=
EXTT4=
EXTT5=
EXTT6=
EXTT7=
EXTT8=
EXTT9=
EXTT10=
EXTT11=
EXTT12=
EXTT13=
EXTT14=
EXTT15=
EXTT16=
EXTT17=
EXTT18=
EXTT19=
EXTT20=
EXTT21=
PLAYORDER=
